# AST/ASF file generated using VICON BodyLanguage
# -----------------------------------------------
:version 1.10
:name VICON
:units
  mass 1.0
  length 0.45
  angle deg
:documentation
   .ast/.asf automatically generated from VICON data using
   VICON BodyBuilder and BodyLanguage model FoxedUp or BRILLIANT.MOD
:root
   order TX TY TZ RX RY RZ
   axis XYZ
   position 0 0 0  
   orientation 0 0 0 
:bonedata
  begin
     id 1 
     name lhipjoint
     direction 0.440178 -0.822639 0.359871 
     length 2.53113 
     axis 0 0 0  XYZ
  end
  begin
     id 2 
     name lfemur
     direction 0.34202 -0.939693 0  
     length 7.88132  
     axis 0 0 20  XYZ
    dof rx ry rz
    limits (-160.0 20.0)
           (-70.0 70.0)
           (-60.0 70.0)
  end
  begin
     id 3 
     name ltibia
     direction 0.34202 -0.939693 0   
     length 8.43783   
     axis 0 0 20   XYZ
    dof rx
    limits (-10.0 170.0)
  end
  begin
     id 4 
     name lfoot
     direction 0.0886351 -0.243523 0.965837   
     length 2.63414   
     axis -90 7.62852e-016 20   XYZ
    dof rx rz
    limits (-45.0 90.0)
           (-70.0 20.0)
  end
  begin
     id 5 
     name ltoes
     direction 1.53703e-011 -4.21717e-011 1   
     length 1.31427   
     axis -90 7.62852e-016 20   XYZ
    dof rx
    limits (-90.0 20.0)
  end
  begin
     id 6 
     name rhipjoint
     direction -0.399779 -0.839773 0.367367   
     length 2.47948  
     axis 0 0 0  XYZ 
  end
  begin
     id 7 
     name rfemur
     direction -0.34202 -0.939693 0   
     length 7.74806   
     axis 0 0 -20   XYZ
    dof rx ry rz
    limits (-160.0 20.0)
           (-70.0 70.0)
           (-70.0 60.0)
  end
  begin
     id 8 
     name rtibia
     direction -0.34202 -0.939693 0   
     length 8.74432   
     axis 0 0 -20   XYZ
    dof rx
    limits (-10.0 170.0)
 end
 begin
     id 9 
     name rfoot
     direction -0.108514 -0.298139 0.948334   
     length 2.66102  
     axis -90 -7.62852e-016 -20   XYZ
    dof rx rz
    limits (-45.0 90.0)
           (-20.0 70.0)
  end
  begin
     id 10 
     name rtoes
     direction -1.53392e-011 -4.22077e-011 1   
     length 1.31983   
     axis -90 -7.62852e-016 -20   XYZ
    dof rx
    limits (-90.0 20.0)
  end
  begin
     id 11 
     name lowerback
     direction 0.0113257 0.999866 0.0118602   
     length 2.58694   
     axis 0 0 0   XYZ
    dof rx ry rz
    limits (-20.0 45.0)
           (-30.0 30.0)
           (-30.0 30.0)
  end
  begin
     id 12 
     name upperback
     direction -0.0164747 0.995193 -0.0965375   
     length 2.52368   
     axis 0 0 0   XYZ
    dof rx ry rz
    limits (-20.0 45.0)
           (-30.0 30.0)
           (-30.0 30.0)
  end
  begin
     id 13 
     name thorax
     direction -0.0194301 0.99433 -0.104552   
     length 2.56099   
     axis 0 0 0   XYZ
    dof rx ry rz
    limits (-20.0 45.0)
           (-30.0 30.0)
           (-30.0 30.0)
  end
  begin
     id 14 
     name lowerneck
     direction 0.0148543 0.995587 -0.092657   
     length 1.71582   
     axis 0 0 0   XYZ
    dof rx ry rz
    limits (-20.0 45.0)
           (-30.0 30.0)
           (-30.0 30.0)
  end
  begin
     id 15 
     name upperneck
     direction -0.0135467 0.993656 -0.111639   
     length 1.68937   
     axis 0 0 0   XYZ
    dof rx ry rz
    limits (-20.0 45.0)
           (-30.0 30.0)
           (-30.0 30.0)
  end
  begin
     id 16
     name head
     direction -0.00615349 0.999547 -0.029448  
     length 1.7462  
     axis 0 0 0   XYZ
    dof rx ry rz
    limits (-20.0 45.0)
           (-30.0 30.0)
           (-30.0 30.0)
  end
  begin
     id 17 
     name lclavicle
     direction 0.988267 0.149885 0.0293713  
     length 4.47222  
     axis 0 0 0   XYZ
    dof ry rz
    limits (-20.0 10.0)
           (0.0 20.0)
  end
  begin
     id 18 
     name lhumerus
     direction 1 -4.48986e-011 -1.14833e-027   
     length 5.37148   
     axis 180 -30 -90   XYZ
    dof rx ry rz
    limits (-60.0 90.0)
           (-90.0 90.0)
           (-90.0 90.0)
  end
  begin
     id 19
     name lradius
     direction 0.999998 0.00170963 -0.000987055   
     length 3.94212   
     axis 180 -30 -90   XYZ
    dof rx
    limits (-10.0 170.0)
  end
  begin
     id 20
     name lwrist
     direction 0.999998 7.53149e-005 -0.00194706   
     length 1.97106   
     axis 4.65056e-015 90 90   XYZ
    dof ry
    limits (-180.0 0.0)
 end
  begin
     id 21 
     name lhand
     direction 1 -4.48973e-011 -1.31746e-026   
     length 1.17917   
     axis 8.4065e-015 90 90   XYZ
    dof rx rz
    limits (-90.0 90.0)
           (-45.0 45.0)
  end
  begin
     id 22 
     name lfingers
     direction 1 -4.49107e-011 -2.63492e-026   
     length 0.950679   
     axis 1.6813e-014 90 90   XYZ
    dof rx
    limits (0.0 90.0)
  end
  begin
     id 23
     name lthumb
     direction 0.707107 -6.35048e-011 0.707107   
     length 1.36499   
     axis -90 45 2.85299e-015   XYZ
    dof rx rz
    limits (-45.0 45.0)
           (-45.0 45.0)
  end
  begin
     id 24 
     name rclavicle
     direction -0.996699 0.0642895 -0.0495725   
     length 4.62611  
     axis 0 0 0   XYZ 
    dof ry rz
    limits (-10.0 20.0)
           (-20.0 0.0)
  end
  begin
     id 25 
     name rhumerus
     direction -1 -4.48919e-011 -2.41059e-027  
     length 5.4981   
     axis 180 30 90   XYZ
    dof rx ry rz
    limits (-90.0 60.0)
           (-90.0 90.0)
           (-90.0 90.0)
  end
  begin
     id 26 
     name rradius
     direction -0.999999 0.00118101 -0.000681858   
     length 3.48381   
     axis 180 30 90   XYZ
    dof rx
    limits (-10.0 170.0)
  end
  begin
     id 27 
     name rwrist
     direction -0.999999 0.000321823 -0.00132288   
     length 1.7419   
     axis 4.65056e-015 -90 -90   XYZ
    dof ry
    limits (-180.0 0.0)
  end
  begin
     id 28
     name rhand
     direction -1 -4.49022e-011 -1.31746e-026   
     length 1.34932   
     axis 8.4065e-015 -90 -90   XYZ
    dof rx rz
    limits (-90.0 90.0)
           (-45.0 45.0)
  end
  begin
     id 29
     name rfingers
     direction -1 -4.49178e-011 -2.63492e-026   
     length 1.08785   
     axis 1.6813e-014 -90 -90   XYZ
    dof rx
    limits (0.0 90.0)
  end
  begin
     id 30
     name rthumb
     direction -0.707107 -6.34713e-011 0.707107   
     length 1.56195   
     axis -90 -45 -2.85299e-015   XYZ
    dof rx rz
    limits (-45.0 45.0)
           (-45.0 45.0)
  end
:hierarchy
  begin
    root lhipjoint rhipjoint lowerback
    lhipjoint lfemur
    lfemur ltibia
    ltibia lfoot
    lfoot ltoes
    rhipjoint rfemur
    rfemur rtibia
    rtibia rfoot
    rfoot rtoes
    lowerback upperback
    upperback thorax
    thorax lowerneck lclavicle rclavicle
    lowerneck upperneck
    upperneck head
    lclavicle lhumerus
    lhumerus lradius
    lradius lwrist
    lwrist lhand lthumb
    lhand lfingers
    rclavicle rhumerus
    rhumerus rradius
    rradius rwrist
    rwrist rhand rthumb
    rhand rfingers
  end

#!OML:ASF X:\für Bonn\!DataBase\2005_08_10_Bjorn_Final\c3d\bjorn.ASF
:FULLY-SPECIFIED
:DEGREES
17
root 4.31122 19.6355 3.23071 6.14498 -7.7388 357.65
lowerback 4.78627 0.0752274 3.92913
upperback 11.1099 -0.000385273 0.327853
thorax 9.06837 0.299219 -1.84553
lowerneck -8.88063 0.494048 0.110463
upperneck -4.69641 0.614778 -1.82974
head 0.0192592 0.289347 -0.560586
rclavicle 6.41081e-015 -6.26172e-015
rhumerus -33.2925 -32.1007 -81.8928
rradius 38.1487
rwrist -5.1119
rhand -8.00613 20.1337
rfingers 7.12502
rthumb 17.9029 -9.06225
lclavicle 6.41081e-015 -6.26172e-015
lhumerus -23.3719 18.4143 87.399
lradius 28.185
lwrist 26.8932
lhand -28.3367 -13.7165
lfingers 7.12502
lthumb -1.71112 16.2564
rfemur -28.6475 7.83774 15.3901
rtibia 44.1445
rfoot 5.46358 19.3545
rtoes -7.434
lfemur -35.4036 -3.43716 -10.5409
ltibia 44.1017
lfoot 6.17028 -4.70148
ltoes -25.1993
18
root 4.31063 19.3234 3.46212 5.53268 -7.736 357.425
lowerback 5.22545 0.102089 4.16488
upperback 11.1068 0.0485234 0.429601
thorax 8.81621 0.332969 -1.86834
lowerneck -9.70749 0.549071 0.156124
upperneck -4.9646 0.679492 -1.9835
head 0.0721017 0.316809 -0.613451
rclavicle -3.50109e-014 -5.46658e-016
rhumerus -34.1521 -33.3932 -81.2127
rradius 37.7177
rwrist -7.27311
rhand -8.90449 19.7858
rfingers 7.12502
rthumb 17.0384 -9.48702
lclavicle -3.50109e-014 -5.46658e-016
lhumerus -24.4506 19.7358 86.3141
lradius 28.9422
lwrist 30.3623
lhand -28.9024 -13.6287
lfingers 7.12502
lthumb -2.25745 16.3391
rfemur -27.2332 8.20745 15.7532
rtibia 45.5199
rfoot 0.807909 20.8969
rtoes -3.49848
lfemur -35.1391 -3.62013 -10.2231
ltibia 46.1663
lfoot 3.51935 -6.08705
ltoes -20.9403
19
root 4.30974 19.0122 3.69245 5.18192 -7.74216 357.2
lowerback 5.38642 0.165643 4.40033
upperback 11.0023 0.138845 0.525461
thorax 8.61552 0.387169 -1.89685
lowerneck -10.4294 0.552634 0.294446
upperneck -5.25968 0.662411 -2.2413
head 0.0998116 0.300933 -0.716694
rclavicle -1.68967e-014 1.20265e-014
rhumerus -35.0939 -34.531 -80.4449
rradius 37.4951
rwrist -9.56148
rhand -9.75137 19.5392
rfingers 7.12502
rthumb 16.2231 -9.80198
lclavicle -1.68967e-014 1.20265e-014
lhumerus -25.4616 21.1301 85.076
lradius 29.9678
lwrist 33.7656
lhand -29.8171 -12.6903
lfingers 7.12502
lthumb -3.14083 17.2663
rfemur -26.1574 8.58637 16.1107
rtibia 46.9755
rfoot -4.27712 22.1918
rtoes -0.306153
lfemur -35.1347 -3.64626 -10.0052
ltibia 48.4554
lfoot 0.269576 -7.5843
ltoes -19.0616
20
root 4.30967 18.7149 3.9202 5.0942 -7.74632 356.978
lowerback 5.27103 0.229268 4.57085
upperback 10.7937 0.216781 0.661417
thorax 8.45596 0.427152 -1.84711
lowerneck -11.1334 0.57672 0.447143
upperneck -5.41461 0.670376 -2.60845
head 0.169867 0.294596 -0.856762
rclavicle 1.10822e-014 -1.85864e-014
rhumerus -36.1203 -35.4463 -79.4815
rradius 37.4465
rwrist -11.887
rhand -10.3214 19.4136
rfingers 7.12502
rthumb 15.6742 -9.97155
lclavicle 1.10822e-014 -1.85864e-014
lhumerus -26.5732 22.7529 83.6339
lradius 31.3794
lwrist 37.0156
lhand -31.4749 -11.3876
lfingers 7.12502
lthumb -4.74171 18.5393
rfemur -25.4944 8.86455 16.4635
rtibia 48.4638
rfoot -9.40884 23.0939
rtoes 1.66641
lfemur -35.4571 -3.66388 -9.83895
ltibia 50.8978
lfoot -3.61167 -8.72271
ltoes -19.3735
21
root 4.31107 18.4422 4.14869 5.21455 -7.7426 356.831
lowerback 4.89908 0.304155 4.69121
upperback 10.5004 0.301387 0.756624
thorax 8.35048 0.468476 -1.81174
lowerneck -11.8673 0.601693 0.650185
upperneck -5.34532 0.677293 -2.9949
head 0.317013 0.283528 -1.01342
rclavicle -9.24349e-015 5.66536e-015
rhumerus -37.403 -36.5336 -78.2114
rradius 37.7319
rwrist -14.0768
rhand -10.2254 19.0793
rfingers 7.12502
rthumb 15.7666 -10.2986
lclavicle -9.24349e-015 5.66536e-015
lhumerus -27.9929 24.378 81.8933
lradius 33.1722
lwrist 39.8958
lhand -33.6565 -10.1716
lfingers 7.12502
lthumb -6.84802 19.6976
rfemur -25.1774 9.10435 16.7105
rtibia 49.9266
rfoot -14.217 23.5456
rtoes 2.36146
lfemur -35.9546 -3.68104 -9.81043
ltibia 53.3592
lfoot -7.93275 -9.23535
ltoes -21.5689
22
root 4.31453 18.1939 4.3751 5.51824 -7.71401 356.646
lowerback 4.36277 0.382572 4.84287
upperback 10.1728 0.379844 0.877957
thorax 8.30346 0.508489 -1.76502
lowerneck -12.7299 0.635527 0.87308
upperneck -5.19518 0.693919 -3.4368
head 0.513957 0.272669 -1.19341
rclavicle -1.98785e-016 4.96962e-016
rhumerus -38.8151 -37.6864 -76.6288
rradius 38.3565
rwrist -15.9472
rhand -9.63277 18.3753
rfingers 7.12502
rthumb 16.3373 -10.9566
lclavicle -1.98785e-016 4.96962e-016
lhumerus -29.5085 25.8299 80.0954
lradius 35.2796
lwrist 42.8901
lhand -35.0289 -10.4575
lfingers 7.12502
lthumb -8.17266 19.3645
rfemur -25.0595 9.26882 16.9851
rtibia 51.3011
rfoot -18.6135 23.5769
rtoes 2.09088
lfemur -36.6007 -3.73968 -9.76268
ltibia 55.7321
lfoot -12.1367 -9.09265
ltoes -23.6902
23
root 4.31951 17.9779 4.60303 5.9271 -7.68562 356.511
lowerback 3.69508 0.467612 4.96726
upperback 9.82853 0.461362 0.956935
thorax 8.31595 0.550726 -1.74604
lowerneck -13.3578 0.666358 1.23118
upperneck -5.34136 0.676834 -3.99324
head 0.579859 0.243683 -1.43622
rclavicle -1.30204e-014 -8.34896e-015
rhumerus -40.2339 -38.5729 -75.1064
rradius 39.6432
rwrist -18.1963
rhand -9.95567 17.5935
rfingers 7.12502
rthumb 16.0263 -11.7636
lclavicle -1.30204e-014 -8.34896e-015
lhumerus -30.968 27.0722 78.2304
lradius 37.6996
lwrist 45.7881
lhand -35.1428 -11.9211
lfingers 7.12502
lthumb -8.28258 17.8966
rfemur -25.0228 9.41963 17.1768
rtibia 52.5264
rfoot -22.3236 23.4238
rtoes 1.88893
lfemur -37.2385 -3.86473 -9.8058
ltibia 57.9219
lfoot -15.5855 -8.495
ltoes -23.0678
24
root 4.32678 17.7954 4.8302 6.38787 -7.62259 356.437
lowerback 2.98414 0.53574 5.0415
upperback 9.45017 0.518804 1.02944
thorax 8.31463 0.576604 -1.70601
lowerneck -13.7407 0.706425 1.65195
upperneck -5.67141 0.652608 -4.7079
head 0.547867 0.210471 -1.74364
rclavicle -1.41137e-014 -2.52457e-014
rhumerus -41.5826 -39.1956 -73.6045
rradius 41.3353
rwrist -20.5777
rhand -10.8054 17.2534
rfingers 7.12502
rthumb 15.2079 -12.1677
lclavicle -1.41137e-014 -2.52457e-014
lhumerus -32.4178 28.0856 76.4181
lradius 40.434
lwrist 48.2844
lhand -34.8622 -11.9473
lfingers 7.12502
lthumb -8.01176 17.8808
rfemur -24.9809 9.5364 17.2825
rtibia 53.5567
rfoot -25.1991 23.1294
rtoes 2.20153
lfemur -37.7954 -4.08041 -9.93434
ltibia 59.8632
lfoot -18.0564 -8.05019
ltoes -19.1346
25
root 4.33547 17.6491 5.05922 6.7229 -7.5652 356.437
lowerback 2.3662 0.601137 5.05918
upperback 9.09376 0.580422 1.06345
thorax 8.28438 0.601658 -1.67499
lowerneck -13.9434 0.746993 2.16114
upperneck -6.07149 0.609476 -5.46633
head 0.463481 0.168003 -2.08581
rclavicle -1.19271e-015 -7.7526e-015
rhumerus -42.8413 -39.6682 -72.114
rradius 43.1944
rwrist -22.6668
rhand -11.47 17.5257
rfingers 7.12502
rthumb 14.5677 -11.9428
lclavicle -1.19271e-015 -7.7526e-015
lhumerus -33.735 28.7412 74.7472
lradius 43.3522
lwrist 50.3915
lhand -34.8905 -11.2503
lfingers 7.12502
lthumb -8.03911 18.5768
rfemur -24.7152 9.66052 17.3042
rtibia 54.3495
rfoot -27.0853 22.968
rtoes 3.65704
lfemur -38.0298 -4.34128 -10.2282
ltibia 61.4876
lfoot -20.1091 -7.30868
ltoes -16.2784
